<mxfile host="Electron" agent="Mozilla/5.0 (Windows NT 10.0; Win64; x64) AppleWebKit/537.36 (KHTML, like Gecko) draw.io/27.0.9 Chrome/134.0.6998.205 Electron/35.4.0 Safari/537.36" version="27.0.9">
  <diagram name="Page-1" id="tTxiChcpywZSXEG5LfI_">
    <mxGraphModel dx="1426" dy="849" grid="1" gridSize="10" guides="1" tooltips="1" connect="1" arrows="1" fold="1" page="1" pageScale="1" pageWidth="1100" pageHeight="850" math="0" shadow="0">
      <root>
        <mxCell id="0" />
        <mxCell id="1" parent="0" />
        <mxCell id="-hP5PwGpWfjhIdvqRZsf-1" value="" style="shape=image;verticalLabelPosition=bottom;labelBackgroundColor=default;verticalAlign=top;aspect=fixed;imageAspect=0;image=data:image/png,iVBORw0KGgoAAAANSUhEUgAAAbQAAAFnCAYAAADOnrzHAAAAAXNSR0IArs4c6QAAAARnQU1BAACxjwv8YQUAAAAJcEhZcwAADsMAAA7DAcdvqGQAAHPhSURBVHhe7Z0LYFXFnf+/gfAIL+P7/YIkiDFWrY8StWgllQS2hlpiWyvFtiatbCXZLlqodPdfWmxrWwJd2E26XZHd1t1QS2ohQeMLH1ChghpCJAn4Bl9oeAbyuv/5zZm5mXNyzr3n5t4k9ya/TxjuOXPmzMyZmTO/+c3MmUkKCMAwDMMwCc4Q9cswDMMwCQ0LNIZhGGZAYOty3PT0X7DryVIMOdgkzsL1RCahc1waJk4tRvYXblF2DMMwDNM/BAUaCbOkjXMw+exmecEvm99LRWDKKhZqDMMwTL8S7HJ8vWapf2E24iQg7wngzCn43FnNqHtimbrAMAzDMP1DUKANObQHbYFkdI65EMj5MzDlIWDYOHXVYOSpwIxngDOuQ2DoSBzoOAGdh95RFxmGYRimfwgKtGOdw/Fp+0lovfJXaPukQVwZBlz8PXVVMfI0IcyeBk5IR+CJmTjw5t/QGhgB75n/1ShKSkJS0FyLZTQ8FylNy3BtT+/1DcXVLQzDvk/i4cQrXoKo4hPCX4kz75JwbU8fvNfSrXsci6rVpX4hXJq607TsWiTZIt6EZdcaz3XtMmETguoidb9b+D2LU8SEjAPRR/HoLYLPZyHzzCh39vyLDdVFzvLskoaOePkjvvKCnrPHdYuDLg0NAYwc0oKk4/vRkZopJ3zgxEnqqiDldOAfhDAbNwGBp7+Owwf2S2EWnmyUNgak0GssBYq/GebldCNtHl4MvIh5IkqRE8PMiyoevUCvx6cr7wKBKlxSnN6zF7dX42nGMYCyXGWdKAhh/82KAjTqiEvhn46d93c9U+BhYL1nsgvh99MdKJ3fnw8eD3EwiXWFbX8+EmbpxZegSuePMFXIi7lQy80vRHml4WdTA3ZgEyrWdz1YU8MOZF+crs4Sk9yyRhRUfDMm+RUUaCOGHMe4oYeQ9NK9aNu7GR37NgMTbgMuuksIM6WZjR0vhRkunotRX1oHJKfQXEcMS2pTvoQmbd79KNxUASM/mIQhF2WiRZJdXimqCyZWNK2vAAqmw5L1ouL8ZjEuqXIIZtEgmOclK5rWo+KS+/u3kRUPcehNzOejBogUZmXijeiCKuXSHT+NrdaTfjGydzQEFQAqK5eUCq1gZ6O2gVV8Ej3h0zDv/ktQ/GD0NUtQoHUEhgozBMdaO9Dy2n+idfOPgA1fApp3AdOfEsLswqAww5mfx6GN9yKp/QhSk5uRnNShfIkEqxVVVESqe5FVScrWaZca39XgcbS4bO7UvRJ7V01RNd2Xh3LRqilOF3bkIano4bpwPPETj+7PRSq1jlNXK87l+bvFX1paNHaF1aWeO+Ljcb97+D0gbToKsssRbDS6Pr9bHLzT7dply4xryt0ykUfB68GH84kVfvA+R36Hyotl1V3xoktmt1K3NDfcesbRs5xqHBUSVZybCpHvJbxcyq6s5DxvcOJRvnyVY++yGVkcLHovH8je8c4Ttmc046/8CVHmbM/XuBObCvNtwswiDRmXaO1J+Rn0xnnulpYudvS+QSsAVlm5eHoGLgk2Khuxc9MlyNDyLMwz2usaDV0T7qVjt3ipuHuUd++6JZKyJnAI74gw/AwKtNbAMOxvPwXHAinyvKUzBZ0fbweuXR7sZtTC7MATRRg66lSMHXYMhzrGSmHoh6ZlP0V5dgG6GhSbsOPih4XKTq0dkXDpVutUqvFCG9iRZxYCDbmrQIHuZqoCfiodUQKmo6KgMdgNUJYrtArhoFB3S4Xtj1IvQTDBydDL4YZXPAjzuaj1ptxQXMrNVpzpzi3+yhnF66fAwzKcQmwqfrCrIATxvt87/GjweP7qB1F8SVW3OHRhz+eHxQtrT1/xrDvzlZ9ez2pi5hm9IKK19yJ1j9J9Iqw8oOrFeUoDCp0XZhqX5yXhmyJ27vEw3Fr96BGUUxNHhURkXwz/HUjVeFBoC75liWve+CzHnvnqFgczT7Sxv0e9lw9u77y9zHWvW4Q/nmXO/nzUxedF+sXZ6igUHu+pa/paQtJSyERZEeJtelou8gt3oIHiXl2J8qBwDf+MZp1kQXGhF0S4pwA989i7vLvno1ddFKKspQlBvWmneMpIsT93UKCRljUyqUUa6kYMDD8RHXlCMzthYjdhNuK8GzFmyoM4fu6taBeCkIShN12FW/Y7G5ULjX90tU6pf9honabNw/2FOjMNVD9y8IXJE20xcqRat/eH6/fILUPAFgcT+3iMZejlcMErHhLjuQhqWbu81PbnDxV/Ea+HVZxz80V8VIE2CXW/Z/gKr1aTK9mQXfZez08trfK8EFqLuC+7FHq4RXZDW4cK8az6ovmsnnE080y/rKJSEy9LnnheVJkvsCBEXtjT2MibbmluuI20nIYj1EvtLLuiQttROt/+fKFwyxu/5dgrX13jYOaJNo73qK/ygZDPGKpuEf64lTnC8XxpGZeoox7i9Z56pG9wHI2E1yUZ8lmFU6kJ2sbPfDyjrU4SVHzTEjpBweX57oZIZ7d89HrGkGUtHRdnu9VrYeom8tOoT4ICjcbBxiUfkoa6EUd/5jtAWws6nrgVbSdeibYhY3Hg8UIMHT4aw09Kw+EXf4zjeyzvk+T/XpiF21G59JhC24BseM2rt/ARD8oQ2QgiN40o9dOIiyV+wheF9MXgc4TII1lQTY3C5fmVXw+LdjUVQlsvRDT4jWMoeiUvmuDdaI+wnDq7dEMiWsE/3eGopKhSUIcaWYmoPPPMGx/xdL3XLQ4+6PN86Ckuzycrfbdx5CjHs7zyhsLb0YBq8XCFSlqlTS8Adq6PcvxskzDZ9kaWr3fXSOce5aNXWXPprSAifO+DAi1IUjKGXXQHhh94FR2PTcGhN19E85blaF77JbS9sR7DGv8Tn/75S2h51ZLHUqsbckweRwWpnELGm+MzPy13GU9Q7rp136jKoHu3jgNqUfR4DM3AKx5OqM9ddyNJgSBtu+M3/l543e83/LBo1V4VqjDPnzbvRTSKEr7D2eSSXQvF0OO/shvaOowhIq7yRSM1zWjVxSwtjJlmqjXqu5zacLZKaXDc6mazVSbiXVhG52bZpXC7TcSwuqjMmcTVDxZ3G/Ox5Y3fcqyw3esaBx/0ZT4Q6hnD1i1O3J5PVLD3F5Yjz1aHWF1sxUG3lK+mFiO0K3UY7j3v9t6QexQjrxhWz4i0E89TXoxiUwBE/IxCY3v4RTk706mRdX93PdLZKx+9njFUWZOalvIrEshPoz4xBJrSs+jbs+TRSD7tCrSdcwuSr7gPIybMwLDUC3HC5B+i/eJ5GHLalRj7hWUYc8bFGDv0UNe9UWHNotshXmZqHSTJvlY3iWy5E3qr5Y6MfPv12EmXvVUpUJ+zUnPdmxw9xCseDnLno1QUyHS6/s2duMSzFeMVf7943O87fDeM7oGkn+JioWl3Nd49nj/YBWF1MXfvAqXuQKvSJjffFK+ra5eub8w40oB1tRwXsLqJcjG/dEdX5RNVWphk45KdVis2yRTyNvyUjzRQYztYWRDUrWi+BzKuwHRHAF4TMeRsO/2MwuTtKO36JMA1b3yWY5d7ezIZRNLr+eB8561nDF+32PFO4wAaCyqCaZyUJITZJqPbkt5F1TCR1ytJL9F4vKee7w2VEZFAtrkH9Hzix9ZQ6dkzWlPmRVzoHfGMg0c6e+ajd13sWdZIOKou1cgQfhr1Calykt//cAppdIHA5n8OdD5XFOh4b2OguepbgZaGysChzUsCrWtvCByt/7/AByvODHz8358LtO56JHC85puB/StODPznfeLeXqUqUIhC8T8z4GgsDWQnVN5SWcwOlDaq02ih588uDUTmnYhDxPfEmv6OQ4zzoRsRPp8sx7Sie2/GqT/o7XQmGgOl2bEJI6ihXZRTYi00vPPfcSwlDccPvIfWd55B+7vPImU4cLD5E/l9Wsqld8lv1gJH9uHwx29j63tjMemLJcqXXoJU9p6oo0zcI7vEBnPeps3Dw9Tad9OKPBGtUs+JTX1FPMShN4nw+YJjPXG08EKCUF1kdtdGR7ftY+prlqP94NtyEI6gySKdsL5RI6hzccSQYzgeSEHS2AtxyRfn9t5K+zToKFTcTULlLW3kgjIwUOMNwXETGiQO3zUSP1SjSHa/cnnsXzgf+obESmebQGMYhmGYRKX7LEeGYRiGSUBYoDEMwzADAhZoDMMwzICABRrDMAwzIGCBxjAMwwwIWKAxDMMwAwIWaAzDMMyAgAUawzAMMyCITqA1lSI7u9RYdbqfiJd4MEw8k4jvCb/bfU8Cp3logUYPpldFDpoiVPfVA7uGn41Sr4DNeMUyjt3iEW4TTBe84tbTeMby+SLBlhY9SAe/xPL5bHGOQf5FQsyeowml2eYzdJlszxeij3Gks4xXLPPRCzOMvgjPjW7hUn6JuuqpfoqPxi09+iuN+oDwGtrkpWiUi24am6ylFWPTpuK+WZi0W/ibUOwVcG/Gy4wHbbMVaYHwiltP49yXeWBC4TYuxWSZHgm0BmNv5V+fkYbiTSr+wfS3zjd5vhB9Ce2XZ2yvLxI5q76x79Ot396LGShABdbpQtW0TpwVYMZN/V1uBhc963L0kvrB1lkILSpWmOGll2CztpPxEq2j2cJuc4ncqyfmLVjapn1zvbVVvu25u1r+TaXZyk4YipNX3O7/UVdauvml7ist0vZqbyHtn9d1wuafMDqcWBIi/G5pYFl2Lyc2P+i5+yj/uoUrsMVP2el9okI9g4QWctX2lA69/ByEW3wJL3uFa95ETRYmBmvuXJTRPmwqja1yWoQipWXKtAkeC+fanXVz93OBLc7BdI/R+xQ1aZhBe9tpidZYDxTMQJr5HLb42Mt+13WdV5Q+3fMt5rjFSSPj1pVnsUur3iO8QFMFRT+Q28thtc7qsUi1GAONoq0y214Ye4wzfJn5FF4Jsqp0eKLFqpxbiNbs6q5WbKxbsE2li1E+eRLSHfFoXFqLPMpxURBml2QFtxqvylLCT+KI25xTlb2HX4RIg/p89ay0md1iR9q6Xg+XRjHELXzXNAhRToJ+kNbXV/knsIXrkQdy002dfl7PQBWQ3CbbshemLLd3n8O7zHjZK0KWz55Cm06WI4/eUTMsk821mLRahCk3ZJwN6GNnefYgrXhTMG0DVVkokdsU98L71EPSJmZhM2mlgurKcmR1SXeBR7lJm4gs1ThuWleBrEKoXacbUQ9VRqNFPK+tDhXpIhUAz7JsoPNMp5W5A3wc0rMuR3UpSNMu1EIVZp1gWoOJFmf4pL5TeMI+uEFsX2AUivSKAjS6xCNNNNEml1eimgqpTA8r83PLfHTNeflFJ+azpk/qLpjcrvdlGrmF75YGocpJb8fVLf/I3gw3VB5ovJ5BdjH1UXprvOIb7jl6Uj59QDs5y3c0v9JKG6dgm1yAGZToVEbMY3nRB6Y2kVcO1O7yFkSh0sDM80jCDwdp/jKMJuyqLYRts2uvciMbArXYJR6ksT4L+fMnoZYkGrnPmmiV0WgRz2urQ3XjzDNOBjqfCHo+cQfFNV7pWZejG85ES6TxFT+Yzxe2TzwXZdJtPiplYemHVk1jvWqF9RceadBf5SSi/AtDwpf1Xi6fpNEGqlTlHiNImJljdL3Z49BjlHCqFo2brPzuZcKj3AiZivrGalTWCo2MxuJqRbqJ9zfLJhF7iYQvy3ZiI9Ck2lwC2QPQF8jwugZgSVV3rbxjpSV64XhuGY9CUZDFy1ckO6Op4mjE0smikL9luQnijJuXX9Zp5MhxImOQuq9xSwNEWE56O/+c+MkDr7IuJwV4PFtvPYdXfMM9h1veRFtOSODYujVJQ4qwy8xIJxlndRzE0Ba6Xe/t98knuflZKMkr6S6MvMqNgLRHLF6MWhpzE390WlkJTOrtbdxDxMmV6kqUmxpbHBIjDU28GKLFVJunVFcyeqAzWkSC28fwaOBShEd96OmW3WyhqndrraUVY5Hq0++9ac32506ncQkaCBcFRUROxTcdFQWrUXy+uoUw47bqI2Xp4VePsaeR7E5QV6JCtpSpa4LyJUTL3i0N0iIoJ32Sf0785IHXM1hjOaa9rN979Tm84hvmOVzzRl3rKVKzyFN+CkPa1OoINGGRTqtpnEvd3+2dpnTM6qoLbNf75H3yieyWc3Q3SrzKjYDyQ7ycBUpS0Gm50NZ6X3CEiJPGrH9piDja3o1ehnesHizQTL3KfAT64qUeiFD6LZ7UNfbGMAMdarzS3J0EKvOxG0Nj4o5qY2qybF2xMOsB1dZU/LxaLI1E42AYps9hDY1hGIYZELCGxjAMwwwIkg4ePMgaGsMwDJPwcJcjwzCSJ554Al/84hfVGcMkHknNzc0s0BiGwUsvvSQF2oEDB5QNwyQWPIbGMAzDDAhsAm3UqFHSMAzDcH3AJBrdNLR9+/bhb3/7mzpjGGYww/UBk0h0G0PThfdzn/uc/I0FnYFOrHh+BX7/yu9xcORBpJ6aiuPHjuPgOwdxdsrZ+OGUHyL/0nzlOrYM1LDb29vlYqI9gT60Tk5OVmeJwebNm7H95W3yeMy4VFx21WQkBTrkuV86kYSadWul1jFk6BB86ZZbcNZZZ6mrsWHj8uV49fe/R8qhQzglVeR3ayveOXgQKWefjc/fdx8uze95Wevo6EBLS4s680dKSgqGDh2qzkLjNobW0/pgyJAhwQVv/ULxpGccCIwYMUK+ZybHjh1TR0xvEfWkkLq6Oll4u0GrK4if1o5WLH15KR4/8jhyvpiDr5z9FYwUf5TZH7R9gId2PIS3/vYW5k6ci+LcYutenwzWsOnFePPNNzHuhBNkWBIVbhDnucGnn36KCy64ACNHjlQ24dn73nvYuvXv4pmTMFy8rKedeS46Saiq6zIsClMc0DPKX7K1/snjIclD8O7bb6H1+HHpZnJ2Nk4++WS6MyxrKirwxz/+ERdPuhiXXvFZ5N1ym3v6e0BxaO9sx7/eO09W8sTXvv41XJKVJY/DES6/O4TgevnXv8YRmik4bRrOvvXLGDp6FESbBq3vv499Dz2Epk4hUoUQnTZvnnVvhGzfvl3GfdiwYcomNG1tbfj4449x3XXXKZvQxHJSyF/+8heMHz8eWT7T99VXX8Xu3bvx5S9/Wdn4hxpnL7/8sjoTqDzxQ6fIk/379+Omm25SNpFz+PDhYJppAX706FGMHj1axo2E9EHRqKFzKvcE/dJ5qmj0DFgCx4U5LFo3/t7xWGATaLq/nDLDL5R/x44fkxlEL7xVmXWZnzz+Ezz0zn8hOycb2anZsjK+5cRb8M7hd1CbVCvveeTtR7C3Zi8e+fIjyL4wW/kcnsEa9pEjR/CeEDATL7rICt8Il5C/dC7P1LlBbW0tzjzzTPlC+eWJxx/HM08/g/f2vofPT7kRBbPvwpiRI9RVAQVp/FpxssIWMlA8bxIOHT2O8n8rxbvvvE0ukTc9D9d//vPy2ItNL76Ibdu2obGhEeeePx6fn3ozhggpkTyUKvVg0Q2N0MbWV/4ZY8eOxrtvvYlR4rmpso9EoIXL78f/5V/w3qpVmHr9dTj5C9eJmHUg0C7ua7ViSWnywR/+gHVCuN36yCO4YHLkm5+8KNIiLy9Pnfnjr3/9Kz4fJo01ToHWk/pA89FHH8k0Pi4aLxdeeKGydYe6NUlIU6VPQjBS6N5Dh4/IMtYtb8iB49iE7J9+6ilMmTJF2URGeXk5duzYgeHDh8vGRm5uLk477TS8/vrroryNlfYk0Cg9SLhTWv7pT3+SmjalDfUQ/PCHP1S+DSA6P8WQI79C54gvAcOvUZa9T7cmZ6R95kmqEEkjCkfwV5i3P30b/1v7CDov6UTqsFTsPLITr330Gs4bex5ShqSg7kAd6o/UI+PEDBzMPIh7/u8e5as/BlvYbR3A7o860fShaPG1dAbDM19giof8dZw7TaRQy5NezNbWNqF1kEBJwofNh/CBMPT74afimMwn1u++Tw9inzje98lBvLf/IN79+ADJFeFPp/SHTCdJiTCQ4H5SVDhjxozBmWefjfSMSUibmIkL0jKEmRjWXJguzIR0fPzRPnywby+GiQrGbxecSaj8/vTtt1EnNMhLRLKOu+wcnHr7NzA68zwcfX0nWprrMPqmKRh5/fUYlZGBTCEsKu6JrKyZkJDwC7ntybOa9HQM7dRTT0V9fT1OPPHEkN2kshyI8rRr166wgi8UQ0XhMst+0Og8c5ihytBxNDz33HPinWiVDUR65tdee00+N70vJKBJQ6YeEdLUyJ4ak+ROd3WT+1hxfO9ebM3ORsM//ZN8R72ga+SG3NI9Maf9TQw5+gsMTaZGZ3TlL1JsuUmtB0r0SJAFSBWMJDLiXP4K81zTRjSPaUbbqDb8be/f8MreV7DjnR2y6+fQ0UN49b1Xpd22D7ch6bQk7E/ej70H/CfwYAt7465W/Onvx/D4zlbhvtMK08XIOLnYa0PoX7/QC0oVzzlCqNDYYLKo4C88MxXjhdG/0px1ovg9EROkSZW/acLuwjNSxX3UxWP5Q0aqPT7InHSxOhK3CHOstd0wbSHNcWoFxABKL6/83r1xI8YKQTVmeCs+fesZ7N9Ti5Nuno32GzMxduYdOHXy9Xhj81M4XPcqThP3DRWV3IEeViTHjrXKRkU4yA25jYae1Acm1J08btw42T3uRWNjo+z+JiItk0EoLxz5o4/djBZk+vjDDz+UgsU0jz32mPI8NNRouPbaa1FSUoJ//Md/xLnnniuFlZc555xzcI9o0PyTECi33nprRA2UUJBgennGDJz4mc/g0PbtqP/+912FGtntFPFsFo2U02+8Ud4TS6EWaN2G5OPl4vc1BDqalW3f0a15QoO/kQwAyxdbFyiHadzfiGOpx3Ds/WN44LQH8O8Z/46Hsh/CKSmnYMqFU1CeVS7tbm+7HZ2tnTg+6jhee89/i2Wwhd3WHsDpqUNx/inJGDNShGW8mGR0fAjzmNDnZHa9345/e+oIltccRe277cpFaLRAI0MvxVChoQ1PHhI0w4RJJiNKlJB1dIfUwNpEC5wEz/HWDrR3iPvJaH98CjQNeUvpe8LokYZJcZzbzdiU4dbNUWKmnzO/PxaV/gnHWzA05RhGtTaibW0+3nrhT7jkjh/h7Gvz8OTPSzDmuZ+KFutbSBLPPer4cbzXg5b5li1bpJBpaRFl69hxOTGIGggaOiY7ukZuyC3dEw2R1gcmmZmZcmzs4osvxvvvv69suyDNhboYd+7cic+IirinyHKhyr/MEzo23gtplL3T0D2nn346Lrv8cpvxqy3S/aYWTOdvvPGGFOLavPXWW9K8LTR56s4lNzKuKg7RckwIpJeEYDrzc1kyrT975zfR+k4jdgjBZQo1Oq6dOxetb72OK2d/Axnnn48Lv5wr7yU/oub4kxje8RjaWzYh0P4xJYa60HfYUrMn350EM4d+qYAYJjBavGxjyZHlNhydo0RFN9xbVXYyGMM+3taJFiEEhVwIxsHNEF7nI4YBpwnBOGJEEt75xJ8GQ5Wl7ipsF6a1vQNN731qM7vpd6/4VWbPvk/xxr5mvPn+Abz5gdBYxT3tnZYfVldTZAKNoDsobL+mjRIqBui0c8vvFFFRjKNgSCESv82HA8Je3iZJHh5AylkBDD/TOh8p3I8wKhq/kIA6fPhI0Bw50iK780h4WaZF2plu6J6e0pP6wITGtqjLjbrbqPFCwlZD5yTQqCuZBAD9RoPMG5UfUngZ+aQFhzRk72Lomu6GJNMTyB8aQ/vKV77iakgjmzlzpi3cWPCS8Jvif9YZ43F4/3607nkTk/JuwbE3X8cz3/62FGRkNorjY7vrMPGmPLS//yEOCiF2aspJGP+VGXhp1izlW89IavlfDOuoQduhavEOqDInXtYhbRsw5OivxPU/Au3ObftjT7eci3gMTZhg4RG/ujCRmTx+MoaJP5wAfLXpq7hhyw244fEb8P6R97GhaQNueEGcC7ufH/u59GvE6BE45+Rz5LEfBmPYlkATAsEh0Ajz13mszwm6l4TicaHx+cWmoZHmJYTFyeNGCpOizEicpM5PIjM2BSdKM9IyY0bKe7QfPdHQJOKeluNtDtPuYmcZ0g5jQaj8Tr/2WnSKSvvwJ8BHHyfjpK8+gvOyv4KGP8/Hh6/8CTf8UylS876PgJANx4U/Y0eKtDrHf1nTkMA6cOAgDh06JMxh+XvwoN2Y18htqPErP0T7Hdpll12GpqYmTJgwQf5q9uzZI7WJDz74AGlp0e8yJ/NG5UdQiKlzaVS+uRnC7IYkIy5Ie79of0w/9THF55jQysm0HBPa9XGr2/gaofk+vHq1bKQJhzYTyWc1qcKf5vfew/6P9uGg0ADJHNrVhLSbbsbetxvw59tvx5qvfx3739qFCTfk4Og77wXdHRudgneefxGp1/R04oaI/dF/w9D2F9B2+BnrnBDP0N6yBZ0tTwv59lcEjpQhueXnSDryMwQ6PrDcxBiarWoTaD3qMxcRN19yMxNzLviiNUWaBDaFRHlEM6Ypv+mYeoPol9LgGHDGGWfgkhMvESc+GYRhkxA6JjU0oQWoMAm3X+exNnSvFGhCOPrFFGikWbW1k2AVgkS8mJaxxrRIuHSNb9kNaUvRCjRK61SXrkWvrsdYdTmKhPPM7/Nuvlnm92GhoSWdmIpT0i7B678vQduGX+H90q9h/7Y/of2Ma/HpGzK7ZX6feEn4/KYJBBs2bMDzzz8vp6VTmpGQam4+IA0dOwWa8zrdQ/eSH+QX+emXHtUHDvTkEJrRR4KLtDLy95RTTpFaOsWtJzMbnVA+yHwxf1V+kZFu1LHTmIJMG+sOf5Af+td5TIbKue4mpjGz9nZhOqzvSPW3d05DWqtfLv3Vr3C60Pzqnq3B4YMf46gQVGQO1e3ClOum4K13GrD33SZck30djjS9EbzeNiIJr/zpjxg2/iLpR+R0Ysjhnwhh9ooUXkEoDQLiOVqb0HFsmzCvSnP8wCOiAnsOQw79AIG2XcpxbKAubWq82QQaEWmfue3lJqMLhTge0TEcXzv7axg2Tmgr1FCkCl7UoX/b9ze8/unrVnOV7Nqs7o0fpP9ARKhblDwZjGGbXY4aCl//uhmCXh5tSKAdE/5EJtC6ZifqLsf39h+ym48PYa863rv/MPaR+eQw3ifz6WFxjyXItD/kZ6RQ/FvbRPg+DWmFsSBUfgeExnXWbbdhzLBheHvtx6iZcgX2rS7FoY+BHQ+34/FrvoatU76BZCEbKL/PO/NM+b1aON59913QN070olJFSDMBN23aJKfvP//8c3j22WfxzDNP4+mnLUPHZEfXyA19jE730L3kB/lFfkZCNGNomksvvTTYrUgCjcaSSKhTJUSTJKLFzBeZTypfTHsyTrehjF+oPBLmfc5jgspKcvJQKcBcjbhunkcCPe+V//ZvGHvdF1H/txfQevRTITwOSHNsxy7kXXUNcj97FVrqd0u7NtGgGH72qaiteRzDMi7FZ3/7W+lH5AxBYOhFSBp6qjoX0POSMGt7R/xSRWen/ehL6GjZjKEty8T1Q8o2OqhMUYOJ0s32FPSykYkUyjRdgMyCRK3W0stKkT06GynjhYpCWomoxL/67Ffx850/typ7UeePumgUbku6DQVnFEj/ImGwhX3kWCcOttDYkLuGRpjHJEBo7IIMVWxkSJAdPNoh/fJLQAhB8ksLJNLQRg0fZjcjhiFlRLI4Tpa/I8WvNiOGJUvh0iHirf3RlUEk0C1HlVZIv3bT3s2Q5hgrKF298vsKUSmMExX/BCHcWppasPs5IczWWu2WoyLtLxXmBPFuJQnBd97atRg9bZrlaQhIkyG/6Z2k75lo8sITT6zHY4/9GY8+WoGKikfwyCN/wB//+N/S0DHZ0TVy8/jj6+Q9dC/5QX5F0gXZ0/rACc3uo5mDNL2duhkpDnRM3xdOnDhRuYoOmReiUjbzRtvrXy/jdj1SnP6Yx/RHnxWYAosEXFCI6V/DRAo9+zUrVmDc9Tfj9ddeQWf7YbSR8BKms7YBHXWNGHbyyUg+91zgvNPx97VrMObqz+NqIQh7JswsAim3oX3otUgekyciMVy+oJ3te8UvLZ4wEknJpwr/7RMKAh370dkqWndH/kvZRAfNUqVFIqiO6/ZhNfWZUxeB31YZLfFCLXZZiETCmC+6ztiWQAu+u+u7qDqpCu3NoqJpOYqk9iQMP3U4UttTMf/4fFzbcm3EhXswhX3v/76HvZ+244MDrUIYtOPkUQGcdeoJ8lpXUVFIC/GfKFxaaJjCY9/HB7G/RcR5SDJOE1rk2ScNwy+/era66s7aP6/F+nXr5PFJJ5+KG2fMxJFDh+W5na5wdJD0Q+HTh9xPPFaBo4esltmsglm4OUzFTiuEvLL9FXmceenlmD6zACOMF74rNE13m1aRT//6w2KMSrEqZyr89KF7JB9W+8nvgBBAu4qKcNKGDfiUtCJx3ibcniYESucJJ+DY/Ploue46X/nd0dGOw0cOI2Uk9VVb0Gol3Z8uNBQzmm2oaTnWgjGjx7pWmm4fVkdaH3hBGhqFSd2ONKuRFgegMkFjbNFCeUN+eeWLeUyYx0R1dbV8bhMaN7zER7fwbaKBkp+fj69//eshwzwsnldq9NrQdSO+4j/12or/xbPQqin0CUCk0OSPF+6+G588W40LzjoXSR1CQIp8TBJlvvn119F2rBmfCE3xlJtm4LqVK2UcYkHg+HNIbl+HtoOPSoFFDBs9FRh+uXgu0XjteFMIMeqCfFVeQ9IIjBj3ZbSP+ZU49r/AgxPS8nWPDxH1Wo5UmDpEIrq96IT52/BJA9bsW4M9x/ZgeGA4rhF/+Wn58uPLrVu39kioDJaw7179PmZln4njtPqEKPDJQ4QRBTMkHrUfTaXv7KT4JYG82P5GM+bfbAlHL/786KNY99hf1VlsKBCVwbS8XHXmjinQkocNx8VZl6L1WPeujFAMGzESWzc/H1zqq6cCzW9+f9LQgLaSErx32mkICGGGa67BZSL9kquqfOc3jbF0inxKUUKY+M1vfiNXpYgEqpTpmydNi2hUWVoAdRvYieVajk4ovV944QU5HZ7SiCps+n4rFhqgFGjiNygolCGcx87eAbJ78sknXQWa2RDwwk2gaUNYv0k4cvRIcOKJLD86rnROv0G3FvR9Xk+6Y+VsRinQqpA2LgWtDfYJGMMnnoGm5hacdGMupsRQoBGB1u0Yeqwc7UeekEJt2JgcdI66TwR6JWjlEBxZhiEdQqge3iDdDxvzRXH9++L69fK8J9DkIup5oC5HIuq1HEeIyoFePJlRIkP0L+H1S5jHBH0vE7FQGURh3/3fH+Hc00+RK4TQCzliaACjRnpPeKCPn+kttzLXOtAZLSdodIqCLOIyevgQfLB/P1bcYfSDu/Don/6Ev/7F38emfrntq19F7vTQSzmZAo0qIV0RRQrlj6ZHAq2P87utrRXDh48ICmHiX/7lX/DKK1ZaEPTRMnUnmlBXHq1QoSEN6P/9v/+nzkiwUHdfm5xS7ySWazmaUHldvHgx7rvvPvz973+X3Y60PBQt+bRo0SIpkKJB36/zxGkI+qVWPHV3UlcupRNB65Ju3bIVeY6GFY0/+hFoBQUFcir+7bff3i08MhQnKrNHRbh0bM6mNBtG+h4NjX1GKtBImD0jhNn+jRtwyVDh17tCiAio0518DjZ/zz0ZO9o6cLIQajeuWBFbodbWiKEtS9Fx9FkMHZnZJdA0R38vWlUV6Gh5CcmjrkMgZTaQEvlwj4bSicZmSaCRYLM9SU/6zHXGaaPRx16/VMi1qkjHPYH8Mg1BrS19bP7W1NQEz3srbEIfe/32NOwTUmhcajhGCTM6ZYTIPHEsBJqbSRk5TPxqN8OsMazhQzFyxLDgwPTolJEYTW6E+3HC73DQS0nxjaWJVDhRGurKIFITLRS2aTT62OuXnrNHZS1piJwBuHHjxqDJyMiQ3zJpc43Q/KgLzzRkZ7qhe0w/XqYdC4z4h6In9YEbpO3Q+AZVPNTtTN2YlBYnnXSS7O6LBZTepjGhc0p/+pSB1lSk5dToQ2f66HnbK6/ioosmhrw/FG7Ltzn9IuNWJoMam7puuo8UEmZPzZ2Ljzc+jivF+z1WCLOxwp6+7jt63ik4cu4p8pjsxr6zH1cOH4aPnn0cTzk+vo6WpGHp6Bx9P4aO+gKShp6kbA1S7sCQ5PEYMvRk8f63imIeppfJB1SWKP2osRL1GBpJRfLQzBTCzBjzlwoWFW5qIekXPGloMl7fWRexluQMmwrpAw88gJtvvll2591www3SjmZ2/c///A+mTp0qW1OxCJta+CQ8qYVMfd2TJk2SLyvNQqMWI708Im1llw+19m655RZ5vadhP7jhME46WRTMY1bFOCJZaGheU9JFjtKLRn/yWLhPFoX8eFsbjh5rF4VItM5VnowcNgSHDnyC+dNCf9i65v8qULl2rTqzKPnnH8hKSeMUUPr8fx95BE8/9bQ8/uSTT5ApWujE127/Omb8wz/IYy9MDU1z6MhhuawS+W+Gqc+l6QzIqepU1ogLaFUEtfpDTzS0vi7nR4+2iPfR/9YvfqitfU2UU5qUcUz67aQ3xtDo+UmzpPSgCSo/+MEPpP1//Md/yHeT7H/0ox/hhBNCd3mHgt43SnOnUCCjocqOPvKmFj3VAzRG+TehmZ11xhmyXFAeBfNJ3PfSS1vEuxteQ7uVPpoWDQdTQ9OG4kOGSiiFLwUYdfcqe+2O0L+aup07cZ7PMTQSSDVCMO1/ZgNuEJp3yttd3YwfXHgW5h49Rotd4t+FEDv1za4VQVouOAfPivw55cYcTO3xTMfuyHey81MMPfIztA//itDQrrE935Bjq9B5aDmGjshEYPQPEEi+XF2JnHfeeUf+6vct6jE0/aI7CxPhPKYAKWOpsre+RxGZnJyMI8dbce4Zp0khFAnOsGkG35IlS+SYAa12TWbv3r1ynTUSdN/73veku1iE/fvf/x4zZsyQYVKrj7p5SKiRQKMwc3Jy5LI/9LLRC0NxoVUEehp22cYWnHBiKo61W+MAI0mgjerebURQebIqdvoVL6k4oKn6R462iYI9TKQBFVzK9iQMTQqg5dABFE3pXsGZkFD6858eVWcW8394nxRQb6m1+ug5z3Z0k1BcH9+wAc8+Qx9dihfsww9xwXnny+NvzL5D7kkWCqdAo/yj+/xQ80QNGhsaZFo0NDXiyis+K+2jEWg9KedHjhyV42+U32nnn+srv+mbJeoe1F2DVBmThkVxCAptwxDO+JChD3RptX367uvNN9/A2WefK59/pLlTgiKWY2g0gYXSmMbKaDYjbX2zYsUKqUUSNCmEtoqhBh91rVG41G10+eWXB5/DL9QdbI6dOQ1VdvRMNBuOtLKbbvoCtmzdipNOPElqsCR0KT668UFpVrezHld+9goVgjfUQJ41axbuuOOOYHgElRNtKH8oLYLCTPw6uxr1sYbqDt0AC8fTor7b/V//hVkXnoMxb3R9lvHJhPPwjZbjmHFxFlpEPfX07gb8z7BknPiGJQSIw+PPx5OiLjjphqn4wm9+o2wjg9LMNAQ9c2fHYVHDHBWJcartWUd0VogC8O9ITrkS7aN+LQSp99BJOChd6R0jKP+6iWQquJEWXhlZR4aYGUTHVKgo8I8++hg7RCv1bSFZaYzgqCjEJ58wNmKBojHDJm2JKgDaY4iegQbgs7Oz5QtMBeu4qFBiFTa18v7whz+gWlTWV199tQyLNDa9vQeNE9B0ZSqUtBI3fcUeTdjjRiWL5xiCsaOTcMIYMkNwwuihSHUYsjthtHXN+h2C0SOB5KQOjBs3Qtw3FOOEH+OEPf2OHCmOhd/hoIJKFbVpqNDW7diByj+vlaa+/vWgWypcNFZB3z5RvnfQlH1hSHPS9+vCHwmU33Tfa6++hur1VdLsfW+vtHMaXQLpnmFy5e/oMMuaRtop6Ngs57U76tDYtFvEJYCjrcdx1mmn+M5v8ufjjz+RFTEZmvb+iGhULFiwQJqFCxdKzeb++++X41Bk6JgM2dN1MrSHHN1r+WOt/t7Z6f/bvEjrAyoTP/nJT2SPSIVojJBGREKEhJYWZgT1VtA+bbR6CJWRVatWYc2aNXJcjcpOJNhzxB1KT2p8jhkzGk8986wQZidKTZnyit5NaoTS93E0G7Np9xuiQUIfXISHypluUGh0maBf8zgodKWNhXZDhvyieJJx+hmKvaLRccqYFJy8/4Bcv4HM8bQL8I8trcgTwuz7Ih/uXbsWU8ano7itA8eFENPuTt7/KU4KJGGfaMxECsWT8ooMpa0+pjQlc7x1KI61jpXH1MCjBoucvNHxHpJHXo3jgWy0tln1AT17JFD6UPjU+KBeDBpPlvW8ui6Jps+cMokyxcQ8p8CpxUqF5pyzzsHUm24SLVahdYiCfbao+KPBDJselF4gGjMjDYp+SXuiBKcB6ViFTS/ht7/9bRwWz0SZRS8sdTFSV5iOiy6k5JYqk2jCPiGF+txFIRwhhNCIIRgu6udhQ6krsbsZNjQgKvAAhgtDGliH0NJGjqKxtSHyXtPQHlLkdzhoUeF2kYamobSW9kpA0UQGLcRMQwVau6GJFfr+Hq3lqF70Dz/4QFY+ZKhcRUrWpZeqo8gwy5rGq5yfeeYZmJ6XizYhQE4T2kCkZY2mJFNlS4agMnb99Z9HZeV6VFc/IRpQ9GH180Jze1EaOiY7ukZuyK2eWEB+0P5c+/ZRd5Q9/l5EWh9Q3pSWlkrhSYKKwtS/JGSdFBcXywqQhB6lWYPQpqnC+/GPfyzT0S9+ShE1aJNFo+btvfuQOWmS7HqlMKhuoHDp429qmNLwwb739+J6n5uielXEZpmg46AR8bCdK0PpQGlADY49e97AaaeFnqRlkv+nP+HgaWfihQkXoFPUKwfSxuPHQjO7+qKLMU8IMxmmMAsqK5FxwXgsaW3DgQkXonPMGLxw4Xl4J2kobhGNiUigtCOjhTDVr9rQs2jhpYWbtkvqfBPJw07D0fY0tGCGvJfqBe2XH2S9I9xqQ8KM/Kfy3a0moz5z3c3gC5EZJpQ5JnROgdKD0nI81D130skn4e/bt8uPcc87L/JvLYK4hDV79mzZ50+ChbQl6makQnLzzdOkfazCPkFogTRjjabsUv8/jQ+Q1kZMnz5daovUnXLeeeeJ5w/g7LPPjirssSOHok1/IyzeYPo4+tPDx7uZZjJHjuOA+D0ofo+2iophiNDAZFrZ04sgP8nvcFCrvo2ElmFkQaZlfMQxGSq4TmFG5rhaGV4WXCoL4veGL3whpoPRkfKOEDgR4VLWTJzlnN6jk086GS+9/HeMHTUy4vymrmqajfj22+9JQ92W5Hd6eobQ+mk88AJccAH9ni9+z5PGOrau0XFaWrq8h+7V/tD5iBH+u3giqQ9orJqW1qKK67e//a0Mi7qkr7/+etflragCmjNnjnw/qTG4fPlyOXGEBCB1f/qlQ5Qn6iGh95Huo/iS0cdkv2NnPeobm3DTlClSyFOlSPGkBhh1N1Le0XjM8y+8gC+q99gP9G2iL6i8CGOWGiozZCidqGeJKmZqxDQfoEWbafqGP8aIhtKt69ah4cARPDP+PPyXaGCfMXESfiAEnTkuRsc/fuwxpIxPw3+LZ99y2SVoOHhU3kt++IXSzs1QGjqFHKUxCRs6DnR8glHD3sGhlrNwJPDV4H2mn35wu0/PdB0qVPx/lUcCClRPC9Ytu3DIPn7hoc4cMoR5Tg9ID0Z92JT9R461YGxKSnAfpJ7iFjZ1N6anp8vuPjqnF4SEC73UJ516aszCPv2MM2T/OwkyCofGN0iAUkuQ7ORMQtFaot/9+z/BCNHSjSbs451D8dGxIUKQiYLSIdT0zqTQJkBmiHUs3NM9tJai01Dc004OyA+1Q7Hr9dfx9y1bZV5qc9U1V0vB8KbQkggS3qecekqwVabNW2++Jbt06B6avjxKpMFIUQDPOfccZIb5eHVnXZ18yTUUX9Ku3hCtWK25UGVJDRgnpptPRYV5hsgXaomTHVViWZdmyenjfoi0nNNH9DRucaKomHqS31SOSDBlZKRJQ5oEGeqmy8y8WFR+Y2X32ejRpEXRaiIpSEkZKQ11vVhCi8ZuWnDZZZ/BTTfdKP0hP8lvN2j2Hy0iTM9ARFofUG8INRqpkUcNGZqUQwKDtDbn5wUaGnf+y1/+IislqgRpTIqW8aKwabjAD5TulI+m0XuP0S81Js8XDYpJEzNkfUBQeOY4JzW0SPD9w4wZ8rpfVj/8sKxMKRxqrJOh/NeGFl+mZydD6a7LinlMZZGuP/f8czJ+PVnbcrhoHKT9wz/g6afW4+RLLsddD6+2CTMNhXf9bbfhrdod2Pvm2/iy0NoiEWYE+aEFCaF/Nfq5qO6jLsFhw5IxPPljDBuyV9Rj49GelCGuDZPXyZBbSg+dJn7R4ep76Dzq79BSREVNLW0zgwh9TIYKHBXwPW+8iU8OHsYZJ58oClnPuvpMBlPY7+8/iB3vHpHfkMUSms6fdc4YEbdxysYdqmxK7pmHWmMfr++XFMtWNqE1NKoMtTZGhtJg+8vb8JqqGJsPHsBpp1jdKXd++1uYLVroodj47LN44nH7uoe33/EN1O/cKQSdNZvr4osnyQaGk6effEp2JxF7hND9jBBmwQaPyIeLRGVKrWI/RJLfu4Ugfe/DjzH+HKpMoy9rxKOPPioF8Ze+9CUhdNJERRFaq25v75DdfX/962NS2NMU/nC4TQqJhDVr1qCqqkrOfCWhShND/vmf/1kK4VCQZlRYWCgbG1TBkcZGjQAaA+wpVkVKE6C68kcbgio/yisSODt3Ncju/Ouv9dfNaEITbmhdSt09S8+tx3WorBD00TV9D6jtnGWIGipb/74V4y90b5jFK1TetUZmGkpb61eoL2RADWchuIYMl8+s08A0WrD5pSsMS7Bq023aPkGtKr/QMjYUGRNnxCig1rZ2fHroMCZOuBCnixZULBhMYZOgoMF9rXHEAoovVT5UkWiVPRS04O2iH90vu03opb1SaGgpI0bK1i11SdJ4Wof4pec2oUkbWov7pPlTnHryKbKy+VL+LZj7j/8o7UNBS25tenGTOrMEmh/cBBo98wcffoBcoU3TLDu/RJLf+w8cxKT0CTEpa/TSkrZCU9xJc/nud7/re4o7deOVlZXhC1/4As4//3yZ5lR5eOEUaJHWB9Sg+da3voWLLrpIrnRx0003yS5FP9CiyjSVn+6lck4zImkyVU+h56SZlWaeOfOLugsPHj6KcULL/cxnejamSvlD3Z0aMwx9TI0omoCiK2+CrlF5oUYfjSHS2B0Jw0SEnoPSQQsY+tXoukCnBf2S0Wmh06OnkP+mifo7NGZwQZUWQRUFddeY36F5QQVNd2NRRUcaEqG7YfxAU/epa4b8ImGqX5BQUOtRa4lPPvUkcqflYohoilOlSZWMHz/6G4o/CTQylHY0TkWCSbeMKT10BUJpqSsLyh+6h7rdKL3pHjKUdl64CbRI6wOKL3VdktClNI4E0phIOyNB5qeBlShQ2TcreRPKJ6/u2ESHyqZJX7xvUX+HxjDMwMCty5HrAyaRiHoMjWGYgUG0Y2gM099E14HJMAzDMHECCzSGYRhmQJD0+OOPc5cjwzAMk/DwGBrDMAwzIGANjWGYhIL2fGMYN6RA87tNAcMwTH9Ci1F7CTRa9YMZ3LBAYxgmYQgn0GgdVWbwwrMcGYZhmAEBCzSGYRhmQMBdjgzDhOX2b9yhjuz84X/+Wx31DdzlyLhB643SWqeJraG9tQoFBavwljplGCb+2fjcc3jwwV+hjXaXVdBCyg/+6td4+eWXlQ3D+IeE2cUXX+wi0EhIZGQgY9FGZWGxcZGwCyU8IhEuOgzDOIJjGCbOIG3MND2lfmc9Xnn1VSwtXSqFGgmzX//6N3Iz0W3btytXDOMf2n1Cbkejzu1cdhtu27UCq7R0EgJoxa7LcJk6deX8OaiomIPz1WlYLluImoYGuV9VQ81C7LqLhRrDxBvU1ai7G/WxV/ejXwoL78K112bj1Vdfw2+W/kZoa79G7Y4duP766/Htb31LuUoQ9qxETs5K7FGnUROtf7GOT3/Sg2fx6HKcgKl5QNUzlkTb+J9LMDFPWCjeWlVgaFcFluDTGpr6XUUanV/ti4QhCbUVSsOzaXCL0HX7RiwK2gt/tyhrYuMiYafiwjBM3EIt6e8WFWHy5M/htddqUbezTgi461B413d8748XFQOp0u9PzHSMkzT1LD0XzJmLiUv+ExuldrYQ37lRXRCcP6fC0qzI/G4ilvynQ2K9sgS7p+rrt+H/tKAKxfkXYuIru/EmCa0cIUB/Z91fs3AX7pIS8S2sKrgLUPZkFl9t3SoFoLxUgTm+VUSGYfzg1tUYrZZGXUSHDx1WZ8ChQweEnfsmmEwCMP5u1NTcjfHqtL8I0Ryagqm3/R/uIuEy19GVaGpQd/0fsOsNu8C6TAjAKer4ggmhuyqdvPUGdhn3n39jHi77vyeFYH0GVTD81QjhmZOzG3MbFosYMwzTF5jCLVL0mJnuZszOniw1NT2m1rvswcqihdi6dSGuSE1FzkqhU5B2IY5ph+3U1GLUSGekcRSjOEfbp6JYXgiBzZ8ckNeWnfJTUoNiMwyn+xDsWZmj3AoT1IbIP+2HiOOL0hIbig07HbhX/IznLK4R6RM81rcZ4Qbj6UjHxYsNDc0RJ5d0i/pZPAip30/5zkIhjG7DVFNSkDDLqUJejdKUashNDJCCbAIuUKe+EcLvd0EtjmGYeKazsxO//s3SoDCjbsbvffe7wTG10mXLlMveYjzuLluCq65agm3Nzai5ezeKr1iIzDXNaBbn25bUYZauNbfWIaPMsm9eMwerZpmCyYmojK9owL3klsy2mVhbJCpqobncO2cV1usba9Zj1ZzpyPFyr5x1QwieooWZWKPcr8lswG4SKjmzICwtP4QpvVa4FUKmYbqyo3j/kvwNEZ5+TvmMRYA+lveR8lUT9L95TSYWLqeHcaTj7SeTTwKXOOWoS5qon8Wb0B3WNLblpvlclocblcr21jNVeMU6jALVzUiaoOx6XALdiyn9v20qppx/I/LQZW9ywZwK/A53oYAH0Bgm5piTQaLtaqQxsiuuuDwozOTMNDWmdt111+Faoa31KXsaUScq5XtUpTt+2kxctWq9Jbiumolpug8tZzrmoA6NojY1tYucP+y3rpM/WIVZyj5VCMmtW6mipltFRawkWs36OiyhwEK419jC2TAWmdK9JVRzSkuRs2cD1oo6Ucc9iPE8mJCBq+g3VHj6OcmteUzXCFOzm7UKqGv0FipecTIZnx7ds4Qg8hFYIeTmTlyCHNXlOH/3xJ5paNRVqLstM1ZggtD4FkvJOQWL1axHupazZCJ+Jy+cjzkPdtmTMSeFTFn8O0xcksNCjWFiiDl2Zppo+GJOjhBghbYJIHT8ve8WITs7W9nEL6bG0qWZCJS2oq81N4uKmuxz7sGSOhKSNVhfZwhJL/cKWzh334FSeTwd66VwCaUtehAmPFdImF2xFjO3qXu2Ca1MXeo5OdE/iwfdBZrX9HvDfsrirokZFYsXW/b6uvN+N//ITt1vGcdkDtt1Q0N03Ld4lum3EITCroJnhTAMEw6tnZC2sHUhZC+aYM+GtdgquwQdUFehqbE5cfhjZzymzazD+uL1qJs5zZo4EdK9C0KwFMvBKxIG27DkKqEtYhpmwqcfkYZnYjy3TB/r0MKhVQoV1z1OUstTgivaZwlB5BoawzBMIqPGtaj7LWflBJQKraNultWldgWN7ehBHyEAaMKD1dUGrAk5i09UzoY/0hjT2Kkrs24VcO/d2ofQ7rshBBIWXqHcXoG1M8tw93hrHMv0Q0+k6E6E4WkorTK70qGoIbNLQzPTUXe9qrE1W5ycQirqZ/GG13JkGCZh6LO1HEmjoPkRcTAVnQnPY489Jpe+4h2rGYZJKFigMU5ef/11OQyV1NzczAKNYZiEh1fbZ3gMjWEYhhkQxFxDo1YSwzBMrAmnfbGGxvSKQKNvxBiGYWIFjY94CStuRDOaoECLZaEggbb45729hA3DMIOBRT+cF1agcSOaIWwCLRbqui5cJNCoIDIME5/s3bsXZ511ljqLT3Q94kegcSOaYYHGMIOUgSjQ/n35L7D3rb+pK96cdf7n2J0Lie6OZzkyDDNg8FMpEuzOnUR3xwKNYRiGGRCwQGMYhmEGBCzQGIZhmAEBC7RIqS5CUlKSNEXVyi5eaCpFdnYpmtRpVMTSr4EMpxPDxA19L9AMgSBNT6VCtBVJj+6vRlFeLZY2BhAIBFCWq6zd/NJ28VDhxTIO5JeZf8L0KAtjFSeX+CQlZaO0XxM8QVFpmW0mnp98ilVeMkyU9KlAayrNRlIeUCWEAQkEMlWoFGIiQWjahVpkYWKaOvdDWjE2bSpGJLfEnFjHYfJSNOo8bFyK2rweCLVYxsmMjzSbUNyvCZ7ATC5EVsVsbhAwCUkfCrQmrKuA0G7KoBUbIrdMndta2kWWkFMtv9Kirta3VXE2oXR2CTZvLkG6blHa7lct9EjuN3GLC2ln6eIelCOP7P22SFUcpNuwcbTCkoLfhzsZp6A78WwbpSXWOZ/XjIPzHnHdNTy/kGAiobY4xDNKayMMiosZJ9s99uvd884v1nMG81aGYcXHO32LUJStwxJlJHjc/XrQ3sT2HBGmY9wwCfMXZaHkQZfEtj2fLoM+30WG6QN8CrQ9WJmjdx61jmlH0Ry5jbZPmtahYrOXdmMJi6wqq4XduLQWebq2EC9Kfb5qeVcVolxWnGkoXr0Uk1XLfFNxo7i/Hot0C72xABWzVWXp634zUl5xyUWZqLj1PQGndqFeaF3ZJUnhZ0L+houjJdzTijdZbshUGZWLzR1VuFLdDbotm2K6oXv182pc7hEBeobnl7SJyNpcj0avZxQV3OySrKBmXpVFbjX29CaNb7K6EvpZDJxpLwWllV/iYUQIVOlWoKDR0ty807cWk1arsPJmA/pYh6uv6/jk6UqdCJG/iUZuGaqQ5xDYXu9FBO8iw/QyPgXabjRsnYPptDN5zXIszFyD5uY1yFy4HM7dtUMyeRLS1aEN6soTL8R8pbqlzSjA5HLVFWnYI31SV2VnIrsCleakhYmsYAV+7jcJFZdQqBdavsTyRTYqZsJvHAmzhZtXDtTusioE0x01EOC4jwj1vF73eIWnMDWa7FUfKVsXvJ6RBJ60twRAUCsnHOltw+NZusVHuLOlvW5sCO1xNVW8SemoKFjd1Q3pmb4FmEFuKCzzmK4R2o7IzUeheNpdb6nzUPmbgOTON7Ruwu970c/pQCtJ+IHduZPo7iLucqxZvwpXZUwQRxOQcVUdGv0qabIVX4F1vdVUc1ZqStuJK/zEkSrbdNImlBunYIw1PsIzNZpNc05VtgayslONFddnFNqSPM5HpazoDM2msd6hyYYnbHwM0iZmqSNFb6ZvIpRBv1BjoKACD65T55HQj+mQ6CtdaNidO+Hc+RRoOShdA8xKTcWsVXNw793jLU0NMzHN9/7kuRCNPpSkm900QHWROJfCrgS656dpXQU2F+aHfwl0y89xv2/cWo49jUs4IomjoQnI8K1DO2kzUIAIn9nrHj/heaK6ohYJrcjrGYUQKZIDKSTYGrF0sqHZkKbTaw0dETfZw1qFrBJjokNUz6uorkQ5+XO+Ou9pGYxj0ooXiRdWaFjyJMx7Ee27yDAxwL+GllOK5uZmYUqFeFPnNXfDtzwTUMta9r3r7ghh8kAvhTXeQbPlyC6dxluCc+I9EC3IRYVW10Z2abrtfmn0hAMvbPebLnsQF1/Y/fWMI8Urq2tMaHZ9locGYY1dmP7pSSHeuNzT6Dc8A1FhdY1ZLcYkoe1YSeTxjKKSEy0ZZae6/7QgoHtoHCtduacuKnXFN7b4kKGJCEKYySm1SkOUYVDjqQfPqzHDIa9t46g+8zehoHQr7Dr2ei+ifRcZJkb4XG2/BsWp6zFdCzMJTQ5ZjvQa045X22eihL5TrMxHICaNiBhCXZU0TySWnz/0MwNxtf1FP5ipbJnBSMRjaHYiGENjGA+qjan5llIVZ8KMYZiEIIxA01P0Z2GV+KMxNJqub5krsDDzXtBwGsNEQ25Z/0wgiIi0OPhAnmGYkIQRaONxdw2Nm3mYUrOzkWEYhmH6D59djuaH1YqaYqTmrBRXGIZhGKb/8SnQjA+rNTn3YAnWYgNLNIZhGCYO8CnQ6CPqVVhvamh7NmDt1kyk8xgawyQk8T7DsSck+koXGnbnTjh3PgUajaXJL6u7JoVcsRYzt9mn7DMMw/Qnib7ShYbduRPOnU+BRuSg1DYppCbqGY40q41hGIZhYoF/gbZnJXKkdpYDuch+lJNCamtrsXHjRnR2diobhmEYhuk5PgXaHqwsoi7GZqyZo6yimBRCmtn+/fuxb98+PPfcc5ELNVq1QX+Iq0y3vancoPtivQxPb/jJMAzDRIxPgUazHGM3AYQE0Oc//3mceeaZPRdq5oreau04X0KNYRiGGZD4FGg5mD7HMcsx4tX27QwZMiR6oaahVRxIqKn9m9x3YO6+s667O8f9WvuyaYU+/WTNjWEYps/wPYaWU7oNGb+k7WO2YuEVqUidBayJcLV9JyTUrr32WgwfPlwKtfr6enWlB8htK6wtLNx3JO6+S7WrOyG4uu+u7LUbscPPGetC7MzMMAzD9Cb+J4V0WwYr+in7pJG9+OKLaG1tlZrapEmT1JUoMbUplx2Yg7i5I8Ho3F3Z7y68bvdaVxiGYZheJoxAo21jisX/9Gt8g+Y0tjWx/EHCjLoZSTMjYUbdj6Sx9Ri9azIJKT87Enu6y3XfXdnXLrwe9zIMwzC9ThgJQt+eaU1sDtbYvkPTZg3mrFovRJ5/SCDEVJjJLkG1azKdhtqR2NSs3NwJQddtd2WE2YVX++l2Lw+iMUyfkegrXWjYnTvh3PmUIqZgcxLqmjvUbXfyySdHJ8xsuxQbuyaH2pHY3Fl33Qx3d267K6fZd+uVRk/4sPk51uVecsQwTF+Q6CtdaNidO+Hc+dyxmqBuR9oXTXMVlmzrvlpIJDtWk6ZGlT/DMIwbvGM1Ewk+VSPaPoamNRpdjdtmYu0VNL7Wc1iYMQzDMLHCp0Bz2T5m/DTMvKoOjbx9DMMwDBMH+BRovH0MwzAME9/4FGhu28c04N4YfIvGMAzDMLEggumFzu1jWJgxDMMw8YNPgaY/sGaigj7m5vUdGYZhegWfAi0H9yyps4+h9SckGOS3Xl2mV7aPCRUOCyeGYZi4wreGtnzhVqwyx9Ck6Uetra+2j/EKh1b436RWJmEYJi5I9JUuNOzOnXDufGto9vGzOBtHi/H2MZ6Y4RgaWrctY+S1IhRla7+7C1vPOIp7utxWo0hd421pGCY8ib7ShYbduRPOXXiBtmclcuJBIwtHrLaPCYcRjkQIL9ctYzbXYtJq7XchyvPsCxV7xnGRcFupXFZXorxwEYrhEQbDMAwTJIxA24OVRQuRuUZpZDRzvwcr6/c55thXpNvHqEu+8doyxlj4GLn5KEQtdr2lzgmvsMlteaX0q7qyHIX5wjfeloZhGCYsYQSaY4WQnOmIdGX9PiNm28eEQYejTq2V9cmPCLaMCRl2LvILy1FZXY3K8kKQPOtRGAzDMIMMn2No8U4Mt48JiSMcQginblvGmJoYQV2HFNb56pwIEXbufJp8kofapfMtTcwtjIhVSYZhmIGND4G2CrOCY2i02r553o9jar21fYwTr3A0btvNkOAy78sDqswZkaHiSKTNQMHkySjQEs8tjKBnDMMwDBHB9jH+iGT7mAELdSnOBlb3dFp/dRGSFk9CI38WwAxyePsYJhIGSJfjwEJOBjG7NRmGYZiwsEDrDeh7tSi0q9wyR7cmwzAMExYWaAzDDBgSfaULDbtzJ5w7FmgMwwwYEn2lCw27cyecOxZoDMMwzIBgcAs0mo3I6yIyDMMMCBJToHUTRLSor4/FhTUsyBiGYQYciSnQ6MNjVGCdlkhN68SZsXZiOKKchcgwDMPEHwna5ZiGGQVAhZZojfVAwQxLQJH2pVfo0NuyKI2stIjsilDtpqHZ7jPWSrTZC8OaHcMwTFwyhL6yJ0Po42hMX5E2MQub661VGelD5KyJJM5orcV6LJIL+dKiv0KPm60E0OYS1OeTvdtK9WqNxirrvsaltciTm5LZ7X0vYMwwDMP0OVJDo2VjYmn6hOA2K03YVatWpaeV8OU2K0qbEsJos16MePJSzPf6WFmuoN91PU2of5PJb4c9wzAME78k8CxH2malFruq16EiK79L61IbeEqNSpoo9g5rrPexAj/DMAwTDySwQCMlLQsleSXIsjYNo35IZG0ugZ+Np2047pPbuRQKIUla4GZj8gnDMHFNoq90oWF37oRzl9ACzdoJWm+CSeSirJH2Eot0Eof9vvSSLFTJxRSFfZUQmunKL+rCtG5gGCYOSfSVLjTszp1w7hJboJHAcXYp0pR8s8uRpuc7p+nrc9Pedp/hZ25Zl19VhUDWRJ7uzzAME4ckuEDrfarlVH9laKNOXgafYRgmLmGBFgbayiWooUUzwYRhGIbpVVigMQzDMAMCFmgMwzDMgIAFGsMwDDMgGNwCzW1NR4ZhGCYhSUyB1k0Qxcv2MRSPJF7AmGEYph9ITIEWr9vHyHjQp968ugjD9AeJvtKFht25E85dgnY5xuf2MbRkFgrmIz9rc1fcGIbpMxJ9pQsNu3MnnDsfAq0aRWYFL6GuNadd3xJ/28c0QcozoSbm5hdic8U6T8HHMAzDxJ4oNLRa7OrPGruft49pKs0Oam3ZpAaa3Z68qDHDMEyfE0KgqQkOSXlCRBhCQpp0lGQtQnHMB6EioX+3j0kr3hQMY5NICLlCv9AC02X6UJpxtyPDMExfEkKgpaF4kykYHCYO1jSMn+1jqLtxMwp11ySZKu52ZBiG6Uv8dTlWFxnamTb9O4YmiZftY2R3o6NrkrsdGYZh+pSkXbt2BTIyMtSpGzQpZDEmNW6KqItx8c+XYdEP56mzAQIJ9sr8uNBOGWYwoOuRhoYGnH766crWzgcffACqw6TbH8xUtsxgxOekkCzISYSDEN4+hmEYJjHwIdByMX9pLSr7vX+xf+DtYxiGYRIDHwKtGg+WbEa5OS4lTRyMoTEMwxgk+koXGnbnTjh3vjS0sqCGwtoKwzDxS6KvdKFhd+6Ec+dvDC24/JNaSoomR/ACvAzDMEwc4UOgNaF0dgUKGgOoKlRWufOxlBfgZRiGYeIIHwKtEfWb42yWY7fFhdX2MU95LDpMds5FhoWRyzWabtQpwzAMk3j4GkPLLyy3z3KsfhAlkWzXEmu8to85X517YS6LpT6kDgo1hmEYJqHxNYaWW9aISYuTkFe+2Vo1g77H6o39xHwTYvsYv9CeaCTUFrNmxjAMMxDwNymk27qO/T/D0X37GEFwgWBlvJarIuQajmo1foZhGCah8SHQ4nM/NNftYwjnavsh9zBjGIZhBgo+NTQ3+nk/NDm257J9TCTI/c4mIV2dMgzDMIlLCIEW7/uhkZLm2D4mItRu1Iv6cyyQYZhYkugrXWjYnTvh3IUQaPG/H1r37WPCYBtfox0EAgg+hu0aL+vFMIlIoq90oWF37oRz56/LMV73QwMty2VMUKGZi87Zl9qOfm1C2dgOp9s1XtaLYRgm0fA3KSSvFkuFNtNV4XOlzzAMw8QXPieFDN790BiGYZjEwIdAG9z7oTEMwzCJga8uR94PjWEYhol3fGlovB8awzAME+/4HEOj1UJM7Uzti8YwDMMwcYIPgUYfWNNqxIZ21liAivT+73JsKs02hGwSssNJWd4mhmEYZsDiQ6DRfmiOj5dp+5bJ/bv0FQmz9IoCY93GKmSVpIcXagzDDFgSfaULDbtzJ5w7HwItHZMmO/ZDo/3H+nXTT5qoAixdbX5EnYuyxqW0p4zSwOzdpEXVtPN2CTarFUFI8Nk1PNWNKjcCNbVPY3Fm2yah3O3KMPFGoq90oWF37oRz50Og0RJYVYA5yzG9Hov6c1KIXFTYZYPR4HYw3btJy3LFc6xeislqNf5NxWlIK94UvB6oykLJg0JspRVjkbmhaXUlygtp8WNa+5GeW7mnbtfZ3H3JMAwTL/icFOKc6RjnMxzlDtZLMT9cJE2NK68cqN0lBVRufiHKlUSrrqzFUvKIhKi5SDPts8Z7qTEMw8QNIQWa7JJzmURRXSQq9KKuTrk+R2piFdAbVgeJZDsYEmbpFSjQS3qZ+6blzsfSWtprrRqVtYYm6NxrjT9dYBiGiRtCCLQmrKtwjlNZ5JZVqc01+wtavQQosXX5UZdgCVAwA2k0aQUloB7EbphaldFt2SQetmtn6zTMKKhFZVElask/aUVC1MNPhmEYpt8JIdBodqPXxA+aKNK/sxxp/KuxoMLY8sUaM6OxMRJINF5Wa4z7SYVSjY9Rt2H2uhlYlNW1Zczs+izbztZpMwpQWw4sCi7Jb006Mf10014ZhmGY/iFp165dgYyMDHVqQhMrZgOrjW1WgtDMv0rkh+hyW/zzZVj0w3nqjGESn5dfflkdMfFIVc0LWPSDmeqMGYyEEGgC2gdNKj6m4CJhlofapY1KG3KHBRoz0CCB5vmuMP1KQ0MDCzQmzCzH3DIEGidhse5ik8bs2mMYhmGY+CD8tP1uuznTN13qGsMwvUZnZ2fQMN1xS5dEX+lCw+7cCecuvEBjGIZJEBJ9pQsNu3MnnDsWaAzDDAiOHz+OlpZjaGtrl9ob9SYxg4t+EWheBa1XCiCvsM8wg4LDhw5i/yefSqHW0cHdtIORPhdoq1atwoIFC9De3q5sLOic7B9++GFlEwbbQsFJ8bHKvik8WZAyTJ+yf/9HePfd93Hw0CGhpbWxhjYI6VOB1tHRgddffx0vvfQS7r///qBQo186J/v6+nrpLjS0KoixbBVtHVMfZ6sq0mSaTd1XWWEYpncgDe2TT5px9GgLa2iDlD4VaEOHDsXixYtxzTXXBIVaS0tLUJiR/U9/+lPpLjzmKia5KAtOvaTv5Lo0t6KNlu06Wn9S2+nlq2xanrF9THYRirK1W/rA3H6f67Yz9CG6uT3N/T8yNDRHnIQ/Nj9Yk2OYqGltbcWx48dFA7lDNXRZQxts9HmX47Bhw6TQ0kKtoKDAJsySk5OVy1DkIl8tYWVfJNll25gpwloImfp8ZVdViPLFJEBIy/PYDmZzLSatVm7zaLUU8z5Svly2nVHLbQW3p5lzKvkkcIlTeilml2QJK+u8KotX7WeYaAm+k8Iwg5N+mRRCQksLtcOHD0cozCxyy1Thza+0tByp9nhsGyOETNAufZK1ZmOo7WD0osXk1jyma4Sp2RnbzrjiFida6FiGbW0cmlvGq/YzkbN7xVSMGzcuaKau2K2uMMzgpF8EGqGF2p133im7ISMRZjZoNZNAD1f/78l2MCTMvLad8Y3eXy4flVIwmjtkM0x4SJhdvnYmth88iIPSPIrMBZezUGMGNf0m0AgSYrNnz5bdkBFBQsXsatT7oIXaNsZJNNvBeG47I3Bu+ukWJxH/IjnwRoKtEUv7eecCJtGowfIFwANlczFB2QA5WLb9AWDtBuzevQJTp87DvKld2tu8GuWMrgW1uqmQ8k+6X4EV81zcJxh3fVckjA8SfUUMDbuz068CrceQkKjNs7r8ZHeh0Jjkvm0u28aoSSHd6eF2MLQFjde2M+b2NKs+0pbd49Q4EShJV+fpqChY7bKjAcN4sLsBdVfPxLQuaWYxIQOZWxqwh4631CGjTGlvj96Jh26dJ8RgDeZd3oD7tFa3fSbWFq2A1Om2LEDDDMP9L5R9gvG7/xBC3QeJviKGht3ZCb3afhTwavvMQKOvV9s31yocMsRoe5JGVQSUPWlqaIQQWOPWYcb2DPzCdp3sf4GMvwgBdssCbJF2mjvxqNO9p//xBaWPThdabX/Rv/4M377jZlw0cQLOPecsjB6d4nPGNDNQkKWBCkMsDcMwvYjUxNZig1OFkppbBsarU1eufsAYdyOzDDnqEsMkOkNOP/10kCH0cTSGYZjeJgf3PAAs0N2FEupOXADMnNZdq6pZh4eoi/JGEoQLsDxBx8cYJhxJzc3N8qONDz74ICYCifyhbplE6HLc9oE6YBgfBN6Nky5HhZzpuKCrA/HORw9iGalb1GUohJtxBY9qTcx5jTS2MqCIuxyZAUD3t4RhmIRgwtwnja5DJcw0tq5Fo1txwlw8adxzkIQW2ZnCy3nOMAkCCzSGYRhmQMACjXijFHfOKMU76jTheKoInz0jSZqfPSXO+/p5Ej39BhqsYTGDFBZoCU81fnZ7LX6wOYCXNy9F01KHYGFhwzDMIIEFWqLzBq0jmYXzLxTHFxbjoXXFONe6wjCDDl4pxJ3B4o4FmhPSaFT33WfPKMKL2k5rOfK6shei5I8z9LGBdF+En83Q/qiuQME75dlBu8+ekY0/vuFir8Jys7MjtLPJJXgN5biH3OTMxNdt7kT8vi+u/70E+eL6neVNjudT4avn++N8srM/j3scRLhBP8SzbZKWeF7er+zU8zJMX8IrhbgzWNyxQLNhCYi0PwTw8vsBVP6kFvfMrxaaz0Sk/b0ebwsX79RUIO0O4FlZYTfiDUzCeXTo5O+1uPC3lj8v/6EQf77dEhTnFm6y7KR9Fn69UvgvBMqPf5yF5cp++SQRlpud5bNBLn60eSkuvXIpKsld+RSMUFcs0vD133Zdf6iwUTxfPb6j/Hx5cwFqvq+ElBB6b0wj+zJcK+8VuMaBhHgeoNKIzI+yhdvg/cLQ8zq7PhmGYXoZFmgm1H0nKv/ZN1mn5+YU4NL/rhSCKBc33FGLt4Q283ZjFm64exKaNpAgEu4nTZRdfKYmc+f/fgRcWYDrqRuQuCkfX4Z1v01Dur0cqN+Fd0hgSi3LEnrXPiiEipud+LWFQxpXJMjuSaXNkSHtTglqGM8dxC0Ob6xDDVzcmvePn4RL1SHDMExfwQLNJ+elC3mwpxrP1guN7MIZyKkXgm5PPdKmWRvOmJrXQ1/Vm3s6eFcIs8kVyKEJHOSWtCt5QWha8t58PCuFDQkQNztHOIU9WNFYa3NBY2hk3XCPA8MwTDziU6DtwcqcVBTLJXOs49TUVOSslOt6Dxxk12IJVuvxrpoKvHZHvqzwSVvD0sVo+tIMoZGl4fovAc9uELeEXDhP8VQl/kwa2zni2NDcpP90ILS2n0ltiwRII35wpdDmnnexU+NtEaO1MMfzuSI1SCW43OIFIcwRxg+GYZh+wKdA242GrXMwnZYbqFmOhZlr0Ny8BpkLl2NgLQsnKm6a+n671SWXT+NHD6otP4UwwN+BnBxLKzp3AvBnoa0FuxWdqIkYVtcisJxmH15YjO9M6rL/cWOWpaGR3z9Ot9yekY6aL63G1693sfMKKxQU5h1WN+Od5em255PGdbKJwi1eF1rjcqYfelIIwzBMf+JzLccaFKeux/TmUogD/DJjG2ruhtDUaMG3GtxtaCm8lqOAtJzvAz/hKfQDinhby3Gww2s5Mk58viU5KF0DzEpNxaxVc3AvSTDS1DAT0/x0uTEMwzBML+O/2ZdTCqHNCVNqLXRK50JNY3nmAn/gzCQKtLL+1MTcnZphnETc5di1oDdNDlmO9BrTLrG6HBkmEuJqx2rb9jDG1jGRoreKcW4h45d+3GrGrcvxby8+i+efqQjb5UgrTvj5mJfduROv7vxraK7UoXGATXRkmITA3B5m+wOou3Uc5kUzQ2uALGjMK4W4M1jchRFoeor+LKwSfzSGRtP1LXMFFmbea5sQwjBMP0DCiITaL1Zgt7MLUZ/L33mYN3Ucxo2zjE0A2u6rwTzlRrujzUT1+bhxU7FCOtyNFUVCU9yyAJcL+6lkSf50c8cwfUMYgTYed9fQuJmHKe1JH8cgoKkU2dmliHAdD2+i9S/W8elPBtKzxJIJGcjc0iCaoCHYUoeMMqXVPXonHrp1nstnN0JITb0VeFS5E4a6Mm2biT6aiQXL6c4JmFv2AK5W2uKTc/dg3uUNuE+72z4Ta4t4fI7pO/x3OdYUG9qZNsUD5zs0rihjg5mOnKbxxdUzMU33KebMwJ2oQ4NzgdDdG7AWD+AeZ1vV1LxufQioa+guqHY3CB8fwq3aHY3zhROyDBNDfAq0GhTPqsOSbU4tzT4hhGFspBVj06Zi9GCBLiZSSJhcndE7s45JmF2+FjO3a81LaGXqUjfMsT1plnEdwfQZEUwKyUT6gB0va0Lp7BJs3lyC9KQkZJcKnYK0C3GcJE0RqqUz0jiKUJSt7ZNQJC+EwOZPNshry075KalGkRmG030ImkqzlVthgtoQ+af9EHHcKC2xrsiw04F7xc94zqJqkT7BY32bEW4wno50vP9HhobmiJNLukX9LIOWGswT2lDmfWpSh6EV7d6w1jYbMkjNOjxEGptzq4gJ0zATCyB7FE0M7a6bnzo82e3pci/D9BE+BVoO7llSh/UDtqCmoXj1UkyevBSNgQA2FTeiKL0EWVUBBMR549Ja5Olac3MtJq227ANVhSjPMwWTE1EZp9djEbkl01iAitmiohaay6LCclTqG6srUV6Yj1wv98pZN4TgmV2ShSrlviqrHo0kVLLzICwtP4QpmyLcCiFTn6/sKN6Lyd8Q4ennlM84G9DH8j5SvjYF/Q9UZaHkQXoYRzrO0Ys0u8RJrSgWJOpnGWSoiRjW5ItfIENoT3La/oS5KHugLtjtV9SQ2aVNmffQMJnrrEZrXIxmTVp+j8O8PXNxX2bXvTY/RXj33Wl1M05dMR7L1IxLfe84/saN6UN8dzkuX7gVq2YN4DE0k6ZdqBWV8nxV6abNKMDk8kpLcE0uwAzdh5abj0LUYpeoTU3tInvVR9Z18gflyFP2SUJIbt5MFTXdKipiJdGqK2uxlAIL4V5jC2fdWGRJ95ZQzS0rQ27TOlSgK+5BjOdB+iRMpt9Q4ennJLfmMV0jTM0urxyo3eUtVLziZJI2MbpnGUzQrEZbt96TmGtIJnMCx5PLlnVNx7d1B6quQD1dX/9qu6A7S1DmLOs6t/kp0NeepEg44+YqNBmmd/CtoZXaxs54DM2JqbF0aSYCpa3oa4GAqKjJPnc+ltaSkKxGZa0hJL3cK2zhFH8bZfI4H5VSuITSFj0IE54rJMzSK1DQqO5pFFqZutRzcqN/FoZhBjX+x9D2rESO1MpyIHeNoVmPOSsH1gwmrZ2QtrC5BLIXTdC0rgKbZZegA+oqNDU2Jw5/7KRhRkEtKosqUVsww5o4EdK9C0KwFMnBKxIGjVg6WWiLmIEC+PQj0vBMjOeW6WMdWji0SqHiusdJanlKcEX7LExoTA1sAHPXdxeoo9DQihN+YHfuxKs7nwJtD1YWrcXMbc1YM0dZ5dyDJViLDQNFoqlxLep+yy5NR5nQOmrzrC61dBrb0YM+QgDQhAerqw2oCjmLT1TOhj/SGNPYqSuzthxYVKx9CO2+G0IgoSRduU1HRcFqFKdZ41imH3oiRXciDE9DaZXVlQ6z67O6NDQzHXXXqxpbs8XJKaSifhaG4ZVCvBgs7nqwfUwOGu+hLWNoFZHE3j4mYkijoPkRPBV9UBI3azkyEt4+hnHiewxt+pxV9lmOvH0MwzAME0f4bvbllG5Dxi9pP7StWHhFKlJnAWsG2/YxafyhMMMwTLwSQT+Gc11HnuHIMAzDxA/+BdpAX8uRYRiGSWh8CjRey5FhGIaJbyLochzIazlGCM129DO9vbeINvzejn9/pw/DMIMSnwJtoK/lGAX9WXmHC5sFC8MwgwjfXY6Dai3HRCHcrEuelckMMnilEHcGizvfGtqAXsuRNBnb2oG0ZUnXkkzdtpEJ4tgupbRJOHfbVoWcmv4IozUnm32I7WJMd7SIsLYjf+Q1l/jr62Tldj9h2tu2jylFqdyixf7MvMULE8/wSiHuDBZ3EYyh0Wohpnam1nQcCKjlmty3c/HYRkbi3HYmTXjltq2K3Z+uxXzJ3s92MV73Kzzjr+lB+EJIW1u0GIsVC0HHW7zEAebu0dJMxQreo4Vh/Ao0WuaKvqQ2tLNtM7H2ioHT5ei5nYuxVYltGxkvTI1Hb6vi8CdIiO1bbNvE3P+C+/0GrvHX9CB82xYtGlrMmLd4iQ/MrWC2i3fx8nnc/c8MenwKtN1o2DoH083+xfHTMPOqOjQOFC3NazuXSCBh5ratSmO9fTV6E1Hxu23f4rkdjRc9jb9H+O7QSvjkhrd4iStop2h1KLFpcEp7I7upK7BiXpdmN09JwN0rpgbt7O7nYd5U7XY3VgSPrftcw2GYfsSnQJuAjKscaznu2YC1WwfSVP7w27l4biNjbpfitq0KbQS6uQLrnH1ufrdvke667u+2XYvEJf4ar/v9hC81TiW4xDFv8RKH1KzDQ1dnqGXoajDv8gbcZ2pvRWrX6C0L0DBD2T96Jx76hWVvbgh68NFMLFiuXvQtdcgoU25vpYXIzftChMMw/YRPgUbLXq0BzFmOVzTg3gH2YXW47Vxs28ho1PiV3C5l3QyPbVWEPzSelm507Wl7w39pghMtTOz327ZrMegef43X/X7DVwgByFu8xAlCOF2utaNfZGC73utsdwPq8BBu1dcuX4AtWxqsfQuvfgD36Bd2fAauVoc2TevWh4C6BkswXT0T08hTcmse07VQ4TBMP+Fz+xj/DOjtY2JFdRGSKvMRcApHJq6Jm+1jSACRwkRCjI6lprTMalya16RjhdNen5cBRZevxcztT2IuXTDtzTCcx+Z18q8f4O1jGCc+NTRBcMdqbfgbtEioNqawy41BWZgxsYB2on4UQlNSk0JoPE1ob7rX0Bda+xLs3rAWW6zD0PQkHIbpZXwKNNqxeiEyzVmO1AOZs5K7GHySW+Z34gXDREjOMmx/oE4INZqYkYNl2x9A3a2qK5DM1BBjW0Ig3pfZ1X1Z1JDZ1RUZkgjDYZg+IOIdq7vGzAbhjtXMoIZ3rI4v3Loc//bis3j+mYqwXY604oSfj3nZnTvx6s7nW0I7Vjun6NNUfl6wmGGY+IFXCnFnsLjzKdBqsF7vVB0cQ5uFVeJvFo+nMQzDMHGAbw3NfS1HbRJ8+j59axVqurqTSN0zDMMwvY7vjvk9K3MM7UybftTM5Ae/XTMHaWFghmEYZvDiu8tx+cJMrIkbzYwW1TWWmApUIas+uFYHwzAMMwiJYlJIf5OFicEFMXJRJr/ropXfza1KhOCjLVGeoi7CIhSJa6TNFVVb7qxj5RT1eFDZeW/70n3tQvftVBiGYZi+xneX44QMOCaF9GeXYy7y1XJTSc7tXBZ1rTpvbaOyCMXni+PNtZi0WmhztJVJ3mxAH+ttTfR1ofE1LgVK5DYq9m1Xum0fI4Rd9+1UGIZhmP4gQbscjQ+V8yst7UgLGloIWG3xUl1ZjsJ89QmzXjSYtjIxj+VFgbGosNwmhhYcDrd9DC3u69xOxbrCMAzD9DEJ3OWoyC2TY2haiGntrbK6GpXlhdDyrHfI5e1UGIZh4gTfGlr379D6scuRxrVsXX+kSU1CujrNnU+rv+ehdun8HmlMwW1iHNurdNs+RsSj23YqPIjGMP3GXd9doI5CQytO+IHduROv7nxraO7fofVTl2PaDBTU5nVNxqAZj6uLu/YAo+uTJ6PA9y6XAiG49LYv6RUFaJSTTOzbq3TbPsZ1OxV1jWGYPodXCnFnsLiLYPsYWs+RVgfRXIUl2+zrOBJxsZYjbc+yeBIaNxlCjmGihNdyjC94+xjGic+3hBYingWsMbSzbTOx9or4XPJKTgZZxMKMYYLQPma8Gj4zwPEp0Ggh4jmYbvYvjp+GmVfF50QRmgHJ240xAxYSTnrLFmXmxaJlyUKPSXB8CrQJyLhqFdabL82eDVjLq+0zTP9w9QPYfvAgDpJR+5LFRKgxTALjU6CNx901tKOnMcPxigbcm+iLEjPMQIB2rSah9gulXdk0ONr0U7rqwvX6bqwoWoAtW6zNPqeSZTh/GCbO8CnQCOdMRxZmDBM3TMhA5pYG7EEN5l3egPuC2ttMrC0yuxG9rk/A3LIHcLXS/J6cuyeMPwwTf4QVaHKV/ZyV4kWxU1MstLRi7uNgmLhidwPq8BBu1ZrV5aR1kaBThLuu8euOYeKIMAJtDzasBZaU3Q3nUFlO6RrMWbW+/2Y52hYNVtvHOOyCK3fY7I3VPGh6v+mePtbu5gcZY7FiholHSABdnWG9p+b4mjTL7L0p4a5r/LpjmDghjECj2Y1eEz9ookh/zXIMsX3M5KVoVIsFC2vk0Qr4acXY1LgUk+U1a71FuUp+HoILC8vFhaGWzzL9kGYTfzDNxDHUjbgAmffNxQTZ9bgAy71amuGuay0snLs4hVcKcWewuAsj0EIJrVDCri9w2z7GAS1UTIsMq9MumrCuAljaaF9MmBcXZhIGNXnDmrDxC2RsP4hlUn3KwTI169G6JoxtKn6I6xPm4r47rW7GqSvGh/EnPuGVQtwZLO7CCLTxuPveTCzs9gG1tWpI3ZJ7+qkLwmv7GDtNpYtRbqzxGKRpHSo2mwLRgbEMljS8zxkTT9CsRltX4JOYO0FdI5zXnyTNTdjRr9d1eaMQd8ssuyfJwxDuGCYeCTspBDmlaN6WgV/aFiW2Vg2pca571Yd4bh/jXJPRa/krN0GncXY58hJaDMMwcU94gUaMvxs1tin7zSiNl9Fh5/YxpjDyEkRyFf0KrGO1i2EYZsDgT6DFGzQTMcT2MeHJxXzalTrdvn9ZdRHvZ8YwDJOoJKZASwuzfYwTEoDpJdgsuyMtoZVWvAmNS2utcThl8qD2OnOOofG0fYZhmLgnMQWaEF3Fm4wxLj2tnqbnu3Uzkn3QbddMRhJqXX4IQzMlbW614Wn7DMMw8U6CCjSGYRiGscMCjWEYhhkQsEBjGGbAwCuFuDNY3LFAYxhmwMArhbgzWNyxQGMYhmEGBINDoNG0fV6+imEYZkCT0AJNrphvfC8mt5DRsBBjGIYZVNgE2gcffBC16StImMm1GoPfilUhqyTdLtQYhmGYQYNNoJ1++ulRm76hGg+WAEttq4PkoqxxKVCxTmhlTSidrVcGEZrbqo+ki3VFXdpccOUs24aeakUQpd2VSvfWyiI2bZA1P6Y/2b0CU/WWLuPm9d4muxROAmwZwzCaxOxylGs3FmCGc/UOuegw7X+WhuLVekPPADbNOVUuZ1Wfr7S5qkKULyahRBuF1mOR1vIaC1AxWwmroPsy5AoBN7skK7gZaFWW2x5rDNNH0LYu2x/A1XJHad5FmmE0g2NSCCGE23y95lX6JEymXxKMUPuqkZHrPSphZbonQSndWdoabwTKxBVKk1oxr2szznlKbdu9YmrQLrhBp03Dm4oVZGnzg7S+3VhRtABb1EaiU6UjholvElOgeW3/EvGq+wLn3mfGWo9d5KJMXstHpRR+vCo/E2cIwdMwQ23E+eideOgXQngJIVW0IBOPqg06H81swB4hquZd3oD79Kad22dibZESdEE/SOubgLllWgtUG34yTJyToBqa2v5Fdw9KqPuwBCiY0TWuprUtL6RgLMGD4aRTUymK5OAaCbZGLJ1ci108iMbEE0Lw3KP7Hsdn4Gr6nZCBTDyEW9U4W84yIah2N6BO2ikN7XLSwkjQCUw/EhReKcSdweIuYbsc5fYvBRXGNi95QFUAm/Sy+GnFWFRodSfqSSHdsSaS1OZpP4Rxm/AhBB9K0pWbdFQUrObV95kEIAfLpCY2A+ukAFMTSJTWJTU0aQbOOByvFOLOYHGX0GNozu1faPcXk9wyy37TT39m31bG3GbGuV0M2ZvXJbrLUfnH0oxJBHavwDw59kWCbTseuLoODRBa25YFWO53aqTW3hgmARg8k0IYZqBAEzhkVyFN2AgxbX9CBrDgcjX543KsnVmGuROEcNv+AOpuVV2OZLym5k+Yi/vutLoneVIIkwgkNTc3B+iAPoqOxXdk5E9GRgYW/3wZFv1wnrJlmMTn5ZdflmW7r+js7FRHouU5hNueTih9dLo0NDRg0b/+DN++42ZcNHECzj3nLIwenYKhQ4fK68zggN8ShmEYZkDAAo1hGIYZELBAYxiGYQYELNAYhmGYAYFPgbYHK3NSUSynU1nHqampyFnJE3oZhmGY+MCnQNuNhq1zMJ2+vqxZjoWZa9DcvAaZC5d7TxlmGCYqaAafNkx33NKFVwpxZ7C4i/hNqVm/Cldl0LpuE5BxVR0aWUljGCZO4JVC3Bks7vx/h1ZTjNRZq8TBHKxpLkUOnf8yA9tq7sZ4y4WEv0NjBir0HRoTv/B3aAx/WM0wUXDo0CHs27cPTU1N8vfIkSO2D6KZ6HjiqefwxZs+j48++ghjx45VtnYoD0499VRsfOEl3DV7GtLSzseZZ5wuBRp31w4u/Au0PSuRc8VCbMVVWLKtBnfvZg2NYVpaWrB//368++67+OSTT3Ds2DG53icTG/60dj2+MnM69u7dKyeiuSHqMJx11lmoXPcE5n47D+eccwZOOjEVI0eOYIE2yPAp0GhmYxFQVoP05TlovEcItPFddncbEo0FGjOYaGtrk0KNVq0/evQo2tvbWaDFkP/4z//Bd7/zDbz55ps45ZRTlK2djz/+GBdccAF+99Aj+Od//AeME5pcSspIJCcPlTtkMIMHnwKtBsWp6zG9uRQoZoHGMBrqXuzo6JCCjX5ZmMWWXy79d9xb8j3ZpXvaaacpWzsffvgh0tLShNv/wI9K8oUgS8bQoUOCW0Ixgwef+ngOps9ZhfXmHH2avo+ZmGb2NzLMIIMqTKpAR44cidGjR7OJsRk2bLj8TUlJwahRo1wNXSM3w4cPx4gRw4OaGQuzwYfvDuac0m3I+GUqZq3aioVXpCJ1FrDGMX7GMIMNXXHq78VoVh2b2JlI0lTnAwuzwUsEI6bjcXdNsxyAtUzpgNnllmEYhkl8wgg0GjsrFv/Tr7Xcld3QNYZhmPgg0Ve60LA7d8K5CyPQclAqNTH6NbUz1tIYhok/En2lCw27cyecO59djlpTYxiGYZj4xKdAy8E9S+rssxwZhmEYJo7wraEtX7gVq2bxGBrDMAwTn/jW0HgMjWEYholnfAo0Wsoxx6GdsYbGMAzDxA8RdDlmYk3zNiy5iraPEdrZtiW4as501tAYhmGYuMC3hmYxHumZ+nAaZtb9Eit5g0+GYRgmDvAp0Lp2p56QoWc77kbD1kyk89pXDMMwTBzgU6DRslfWqvrj767B9PU0fvZLZGzjSSEMw8QPib7ShYbduRPOXYRdjhY5pTTD0b5tDMMwTH+T6CtdaNidO+Hc+Z4UwiuFMAzDMPGMT4HGK4UwDMMw8Y1vDY1XCmEYhmHiGd8aGq8UwjAMw8Qz/ieF7FmJHNbOGIZhmDjFp0Dbg5VFC5G5xtDO1gCzclaKKwzDMAzT//gUaPQR9RxMN/sXc+7BEqzFBpZoDMMwTBzgewxt+pxVjlmOvFIIwzAMEz+EEGj07VnXmNmsVXDMcpwFYcUwDBM3JPpKFxp25044dyEEmtfMRtPwLEeGYeKHRF/pQsPu3AnnLkyXo14hxK6tdRme6cgwDMPEB2EEGmlppIXxd2gMwzBMfONzUogbvL4jwzAMEz9EIdAYhmEYJn5ggcYwDMMMAID/D4iXfuNiSkYtAAAAAElFTkSuQmCC;" vertex="1" parent="1">
          <mxGeometry x="50" y="230" width="436" height="359" as="geometry" />
        </mxCell>
        <mxCell id="-hP5PwGpWfjhIdvqRZsf-2" value="" style="rounded=0;whiteSpace=wrap;html=1;fillColor=none;strokeColor=#FF0000;strokeWidth=4;" vertex="1" parent="1">
          <mxGeometry x="250" y="529" width="110" height="31" as="geometry" />
        </mxCell>
        <mxCell id="-hP5PwGpWfjhIdvqRZsf-3" value="Step 2: Click here, then left-click anywhere on your schematic page to place the subcircuit instance.&lt;div&gt;&lt;br&gt;&lt;/div&gt;&lt;div&gt;You can place multiple instances if you like. Press the ESC key to exit the subcircuit placement tool when you&#39;re done.&lt;/div&gt;" style="shape=callout;whiteSpace=wrap;html=1;perimeter=calloutPerimeter;fillColor=#f8cecc;strokeColor=#b85450;direction=south;size=70;position=0.72;base=33;fontSize=16;position2=0.81;spacing=8;" vertex="1" parent="1">
          <mxGeometry x="360" y="400" width="380" height="174.5" as="geometry" />
        </mxCell>
        <mxCell id="-hP5PwGpWfjhIdvqRZsf-4" value="" style="rounded=0;whiteSpace=wrap;html=1;fillColor=none;strokeColor=#FF0000;strokeWidth=4;" vertex="1" parent="1">
          <mxGeometry x="40" y="380" width="40" height="81" as="geometry" />
        </mxCell>
        <mxCell id="-hP5PwGpWfjhIdvqRZsf-5" value="Step 1: Navigate to the &quot;Content&quot; tab." style="shape=callout;whiteSpace=wrap;html=1;perimeter=calloutPerimeter;fillColor=#f8cecc;strokeColor=#b85450;direction=south;size=40;position=0.37;base=20;fontSize=16;position2=0.73;spacing=8;" vertex="1" parent="1">
          <mxGeometry x="80" y="360" width="340" height="54.5" as="geometry" />
        </mxCell>
        <mxCell id="-hP5PwGpWfjhIdvqRZsf-6" value="Placing a Subcircuit via the Content Tab" style="text;strokeColor=none;align=center;fillColor=none;html=1;verticalAlign=middle;whiteSpace=wrap;rounded=0;fontSize=30;" vertex="1" parent="1">
          <mxGeometry x="60" y="190" width="670" height="30" as="geometry" />
        </mxCell>
      </root>
    </mxGraphModel>
  </diagram>
</mxfile>
